Coordinates
version=1
nRows=41
nColumns=38
inDegrees=no

Units are S.I. units (second, meters, Newtons, ...)
If the header above contains a line with 'inDegrees', this indicates whether rotational values are in degrees (yes) or radians (no).

endheader
time	pelvis_tilt	pelvis_list	pelvis_rotation	pelvis_tx	pelvis_ty	pelvis_tz	hip_flexion_r	hip_adduction_r	hip_rotation_r	knee_angle_r	ankle_angle_r	subtalar_angle_r	mtp_angle_r	hip_flexion_l	hip_adduction_l	hip_rotation_l	knee_angle_l	ankle_angle_l	subtalar_angle_l	mtp_angle_l	lumbar_extension	lumbar_bending	lumbar_rotation	arm_flex_r	arm_add_r	arm_rot_r	elbow_flex_r	pro_sup_r	wrist_flex_r	wrist_dev_r	arm_flex_l	arm_add_l	arm_rot_l	elbow_flex_l	pro_sup_l	wrist_flex_l	wrist_dev_l
1.93	-2.60767	1.45909	-1.96352	0.442971	1.22384	0.948372	0.313306	-0.237133	-0.158423	1.17615	0.0471377	0	0	-0.0599388	0.107328	-0.150876	0.208308	0.160649	0	0	-0.207563	-0.0905723	-0.190151	-0.210626	-0.210026	0.167169	0.606504	0.504273	0	0	-0.127848	-0.388691	0.11341	0.738462	1.35379	0	0
1.94	-2.64026	1.45839	-1.92397	0.441351	1.23306	0.94951	0.324	-0.235668	-0.16856	1.1451	0.065563	0	0	-0.0807267	0.104767	-0.13836	0.19346	0.158414	0	0	-0.211366	-0.0850687	-0.196875	-0.211724	-0.208617	0.165678	0.608796	0.510088	0	0	-0.121124	-0.39294	0.111434	0.745879	1.34978	0	0
1.95	-2.66792	1.45747	-1.89005	0.439823	1.24228	0.950432	0.333375	-0.234341	-0.178628	1.11001	0.0777155	0	0	-0.100967	0.102379	-0.126024	0.17912	0.156795	0	0	-0.215188	-0.0801372	-0.202677	-0.21207	-0.207174	0.163447	0.611124	0.516447	0	0	-0.113891	-0.397403	0.110429	0.753075	1.34583	0	0
1.96	-2.69173	1.4563	-1.86064	0.43837	1.25142	0.951153	0.341227	-0.233323	-0.189106	1.07082	0.0828787	0	0	-0.120645	0.100111	-0.114587	0.16566	0.155684	0	0	-0.219084	-0.0756873	-0.207972	-0.212385	-0.204954	0.156743	0.615026	0.523825	0	0	-0.106535	-0.401861	0.109564	0.759823	1.34198	0	0
1.97	-2.71054	1.45506	-1.83683	0.437038	1.26056	0.95164	0.347747	-0.232955	-0.200791	1.0283	0.0838299	0	0	-0.139512	0.0980443	-0.103817	0.154032	0.155472	0	0	-0.222824	-0.0717657	-0.212858	-0.212737	-0.202613	0.147717	0.620756	0.530516	0	0	-0.0992783	-0.406249	0.108546	0.766641	1.33814	0	0
1.98	-2.7219	1.45398	-1.82111	0.435772	1.26967	0.951874	0.353323	-0.233208	-0.213591	0.983262	0.084278	0	0	-0.157237	0.0965101	-0.0942968	0.143834	0.156475	0	0	-0.226119	-0.0687518	-0.217047	-0.212247	-0.201176	0.141903	0.626463	0.535085	0	0	-0.0918976	-0.410683	0.108119	0.773496	1.33423	0	0
1.99	-2.72564	1.45332	-1.81351	0.434581	1.27876	0.951834	0.358321	-0.233911	-0.227675	0.935905	0.0856011	0	0	-0.173116	0.0954402	-0.0867688	0.136087	0.159037	0	0	-0.228771	-0.0666773	-0.220554	-0.210985	-0.200304	0.138304	0.632025	0.538505	0	0	-0.0841808	-0.415287	0.108861	0.780011	1.33039	0	0
2	-2.72047	1.4539	-1.81543	0.433537	1.28787	0.951428	0.364058	-0.234816	-0.242697	0.88679	0.0866556	0	0	-0.185624	0.0947617	-0.0830176	0.132098	0.164171	0	0	-0.229818	-0.0656298	-0.223299	-0.208931	-0.199517	0.136153	0.636725	0.541593	0	0	-0.0761741	-0.42011	0.110553	0.785724	1.32617	0	0
2.01	-2.71435	1.45227	-1.81917	0.432558	1.29704	0.95103	0.36591	-0.236159	-0.259803	0.835198	0.0871508	0	0	-0.20603	0.0957649	-0.068985	0.11622	0.161885	0	0	-0.233236	-0.0651601	-0.225148	-0.207115	-0.200928	0.139447	0.645235	0.529723	0	0	-0.0679655	-0.423852	0.109061	0.790938	1.33972	0	0
2.02	-2.7013	1.45251	-1.83035	0.431731	1.30618	0.950171	0.369586	-0.236713	-0.277092	0.782728	0.0863777	0	0	-0.219984	0.0963603	-0.0634441	0.109293	0.165362	0	0	-0.234493	-0.0654104	-0.226229	-0.204534	-0.201078	0.139383	0.651303	0.529529	0	0	-0.0597704	-0.428435	0.111065	0.796652	1.33974	0	0
2.03	-2.6844	1.45318	-1.84606	0.431111	1.31533	0.949048	0.373105	-0.235901	-0.293769	0.728836	0.0856027	0	0	-0.232765	0.0971747	-0.0591823	0.103443	0.169784	0	0	-0.235251	-0.0662587	-0.226219	-0.201559	-0.201659	0.141412	0.657271	0.528779	0	0	-0.0511567	-0.432946	0.113841	0.802042	1.33985	0	0
2.04	-2.66322	1.45471	-1.86679	0.430701	1.32444	0.947626	0.377268	-0.233424	-0.30902	0.674127	0.0857939	0	0	-0.243638	0.0981635	-0.0571432	0.0991494	0.175776	0	0	-0.235087	-0.067539	-0.22494	-0.198104	-0.202285	0.143987	0.66265	0.528638	0	0	-0.041833	-0.4374	0.117724	0.806629	1.34014	0	0
2.05	-2.61777	1.45658	-1.90664	0.430945	1.33357	0.945974	0.382497	-0.22628	-0.31788	0.620333	0.0837741	0	0	-0.254227	0.0931437	-0.0670025	0.0920432	0.187756	0	0	-0.234008	-0.072343	-0.226154	-0.195976	-0.20045	0.144634	0.667278	0.52973	0	0	-0.0310546	-0.443119	0.122349	0.810784	1.3406	0	0
2.06	-2.59112	1.45997	-1.93477	0.430873	1.34265	0.943968	0.387963	-0.221596	-0.329261	0.565315	0.0896169	0	0	-0.262177	0.094078	-0.0677251	0.0890431	0.194393	0	0	-0.231858	-0.0737624	-0.222671	-0.191751	-0.200506	0.145071	0.671457	0.531271	0	0	-0.0216623	-0.446963	0.126444	0.81418	1.34122	0	0
2.07	-2.56523	1.464	-1.96313	0.430971	1.35168	0.941763	0.393024	-0.214473	-0.33707	0.509234	0.0972262	0	0	-0.268777	0.0946039	-0.0704051	0.0873938	0.202	0	0	-0.229385	-0.0747059	-0.21803	-0.187405	-0.20067	0.145363	0.675966	0.530331	0	0	-0.0118413	-0.4503	0.130788	0.816703	1.34122	0	0
2.08	-2.53922	1.46815	-1.99215	0.431193	1.36074	0.939459	0.396711	-0.205442	-0.341422	0.452248	0.10454	0	0	-0.275869	0.0950932	-0.071628	0.0842897	0.208078	0	0	-0.226892	-0.0754063	-0.212649	-0.18317	-0.200921	0.146062	0.681214	0.529727	0	0	-0.00162767	-0.453152	0.13523	0.817896	1.34328	0	0
2.09	-2.51353	1.47234	-2.02116	0.431571	1.36985	0.937099	0.398424	-0.194091	-0.342219	0.393893	0.111043	0	0	-0.282657	0.0951642	-0.0733481	0.0820872	0.214511	0	0	-0.224418	-0.0760242	-0.206845	-0.178682	-0.200479	0.144437	0.68469	0.538511	0	0	0.00850675	-0.455982	0.141597	0.818783	1.33461	0	0
2.1	-2.48009	1.47676	-2.05737	0.431971	1.37906	0.93465	0.399604	-0.182867	-0.340803	0.337531	0.117491	0	0	-0.287687	0.0950854	-0.0763919	0.0828034	0.222548	0	0	-0.22134	-0.0768695	-0.201865	-0.17418	-0.200456	0.145148	0.687986	0.536099	0	0	0.0180486	-0.457592	0.144088	0.817816	1.34033	0	0
2.11	-2.45985	1.48055	-2.08078	0.432499	1.38842	0.932351	0.395859	-0.168518	-0.330233	0.277082	0.117522	0	0	-0.293329	0.0934791	-0.0817588	0.0856078	0.232836	0	0	-0.219533	-0.0765931	-0.196222	-0.169873	-0.199506	0.142867	0.690473	0.534918	0	0	0.0278031	-0.458623	0.147059	0.815067	1.34596	0	0
2.12	-2.43798	1.48384	-2.10473	0.432998	1.39802	0.930072	0.390118	-0.155009	-0.319098	0.219755	0.114346	0	0	-0.298479	0.0913008	-0.0878154	0.0910354	0.244576	0	0	-0.217883	-0.0764573	-0.191943	-0.165741	-0.197622	0.138618	0.691727	0.535302	0	0	0.0361712	-0.459575	0.149452	0.812552	1.34989	0	0
2.13	-2.41537	1.48645	-2.12819	0.4334	1.40787	0.927828	0.38332	-0.143103	-0.309023	0.169193	0.10819	0	0	-0.303361	0.0885314	-0.0943837	0.0990592	0.25737	0	0	-0.216521	-0.0763471	-0.18918	-0.162202	-0.195786	0.134436	0.692907	0.53581	0	0	0.0430219	-0.460297	0.151096	0.810207	1.35295	0	0
2.14	-2.38823	1.48837	-2.15455	0.433628	1.41801	0.925632	0.378721	-0.134858	-0.306661	0.133321	0.103158	0	0	-0.308326	0.0855966	-0.0991055	0.1083	0.26927	0	0	-0.215151	-0.0764826	-0.188314	-0.159447	-0.194254	0.131672	0.693773	0.535289	0	0	0.0483954	-0.460771	0.152574	0.807778	1.35475	0	0
2.15	-2.37267	1.48982	-2.1679	0.433759	1.42844	0.923603	0.373615	-0.127509	-0.306467	0.107584	0.096662	0	0	-0.312455	0.0808425	-0.105703	0.122151	0.28297	0	0	-0.214435	-0.0756231	-0.18877	-0.157561	-0.192971	0.128876	0.693627	0.535857	0	0	0.0526881	-0.460823	0.153833	0.804851	1.35641	0	0
2.16	-2.36983	1.49082	-2.16709	0.433723	1.43913	0.921768	0.369377	-0.121623	-0.312016	0.0959037	0.0930037	0	0	-0.315996	0.0744098	-0.113145	0.139877	0.297223	0	0	-0.214426	-0.0735956	-0.190788	-0.156296	-0.19187	0.125746	0.693023	0.536987	0	0	0.0555502	-0.460255	0.154339	0.801724	1.35777	0	0
2.17	-2.38432	1.4913	-2.14799	0.433521	1.4501	0.920182	0.366043	-0.116919	-0.32248	0.0989439	0.0920037	0	0	-0.319593	0.0663897	-0.121317	0.160452	0.310937	0	0	-0.215262	-0.0701644	-0.194006	-0.155545	-0.191027	0.122639	0.69201	0.538451	0	0	0.0569161	-0.458716	0.153651	0.798194	1.35895	0	0
2.18	-2.40855	1.49302	-2.11809	0.433218	1.46119	0.918633	0.366378	-0.113378	-0.336875	0.116861	0.0920664	0	0	-0.316317	0.0547016	-0.140088	0.195207	0.331651	0	0	-0.21527	-0.0648321	-0.19795	-0.155444	-0.189154	0.113789	0.689669	0.555017	0	0	0.0572957	-0.456689	0.154279	0.794654	1.34968	0	0
2.19	-2.435	1.49195	-2.08666	0.432801	1.47274	0.917501	0.362084	-0.110608	-0.34082	0.136172	0.0872078	0	0	-0.323873	0.0472633	-0.140766	0.211119	0.336469	0	0	-0.217098	-0.0605268	-0.202057	-0.156216	-0.189911	0.112856	0.689403	0.552666	0	0	0.0554353	-0.453467	0.151253	0.790937	1.35325	0	0
2.2	-2.45837	1.49114	-2.05768	0.432406	1.48454	0.916423	0.358904	-0.108746	-0.344887	0.160658	0.0847915	0	0	-0.328691	0.0386651	-0.143375	0.233057	0.341947	0	0	-0.218053	-0.0560938	-0.206893	-0.157798	-0.19088	0.112233	0.689473	0.549926	0	0	0.0518965	-0.450019	0.147369	0.787286	1.35598	0	0
2.21	-2.47958	1.49119	-2.03095	0.432038	1.49658	0.91539	0.356311	-0.10667	-0.34695	0.184083	0.0836543	0	0	-0.331156	0.0292516	-0.147055	0.258243	0.346382	0	0	-0.217559	-0.0511952	-0.211711	-0.160006	-0.192105	0.111735	0.689324	0.546134	0	0	0.0469076	-0.445922	0.142781	0.78309	1.35824	0	0
2.22	-2.5069	1.49234	-1.99862	0.431758	1.50883	0.914464	0.354002	-0.103143	-0.347037	0.202939	0.0778372	0	0	-0.331501	0.0183477	-0.152619	0.285494	0.349399	0	0	-0.21567	-0.0452955	-0.216144	-0.16263	-0.193833	0.11217	0.68789	0.543686	0	0	0.0406758	-0.441037	0.137473	0.777849	1.36039	0	0
2.23	-2.54449	1.49445	-1.95665	0.431639	1.52126	0.913716	0.35189	-0.0980494	-0.346227	0.216807	0.0613142	0	0	-0.329481	0.00557503	-0.15991	0.315774	0.350372	0	0	-0.212704	-0.0383255	-0.219913	-0.165373	-0.195705	0.11305	0.68599	0.541087	0	0	0.0336413	-0.435422	0.131761	0.771555	1.36234	0	0
2.24	-2.59314	1.49697	-1.9042	0.431691	1.53381	0.913193	0.349286	-0.0922219	-0.347063	0.227733	0.0358777	0	0	-0.324988	-0.00888756	-0.168253	0.350315	0.348566	0	0	-0.209209	-0.0306039	-0.222966	-0.16798	-0.197222	0.113394	0.683572	0.536794	0	0	0.0261536	-0.429224	0.126028	0.764182	1.3639	0	0
2.25	-2.65392	1.49953	-1.84031	0.431915	1.54644	0.912904	0.346259	-0.0861652	-0.350049	0.240189	0.0115127	0	0	-0.317339	-0.0249809	-0.177168	0.390298	0.343145	0	0	-0.205572	-0.0222906	-0.224942	-0.170743	-0.198931	0.114002	0.680215	0.532735	0	0	0.0185864	-0.422602	0.120675	0.755882	1.36539	0	0
2.26	-2.73114	1.50186	-1.76004	0.432264	1.55919	0.912838	0.343288	-0.0800679	-0.354958	0.256881	-0.00472397	0	0	-0.30566	-0.043158	-0.185147	0.436957	0.332614	0	0	-0.201835	-0.0132055	-0.226426	-0.173807	-0.200876	0.114883	0.675864	0.531215	0	0	0.0110397	-0.416106	0.116588	0.746879	1.36713	0	0
2.27	-2.83781	1.50657	-1.65021	0.432736	1.57195	0.912628	0.345127	-0.0728589	-0.360831	0.280378	-0.00960063	0	0	-0.283707	-0.0660011	-0.195146	0.497033	0.317627	0	0	-0.194781	-0.00221015	-0.227488	-0.177113	-0.203339	0.11686	0.671217	0.530342	0	0	0.0033407	-0.409243	0.114173	0.736626	1.36416	0	0
2.28	-2.98863	1.50663	-1.50226	0.432658	1.58428	0.912944	0.342863	-0.0627631	-0.360153	0.302942	-0.00641788	0	0	-0.264315	-0.0732645	-0.18429	0.552463	0.280354	0	0	-0.192846	0.0117194	-0.224253	-0.178447	-0.207403	0.117771	0.668622	0.526559	0	0	-0.00430893	-0.401271	0.112006	0.727476	1.36721	0	0
2.29	-3.07185	1.50832	-1.416	0.434163	1.5973	0.913403	0.342333	-0.0543002	-0.355139	0.326912	-0.000216681	0	0	-0.240742	-0.106575	-0.196382	0.612413	0.25236	0	0	-0.187204	0.0184028	-0.223391	-0.182768	-0.20829	0.117694	0.66623	0.52115	0	0	-0.0114157	-0.395043	0.109825	0.71792	1.36963	0	0
2.3	3.03624	1.51198	-1.2431	0.435247	1.60965	0.913457	0.345271	-0.0411644	-0.351518	0.3472	0.00754282	0	0	-0.206347	-0.130196	-0.194589	0.679922	0.20738	0	0	-0.178415	0.0304938	-0.218746	-0.185462	-0.211759	0.119986	0.664654	0.511922	0	0	-0.0190615	-0.387258	0.107845	0.708599	1.37281	0	0
2.31	2.81039	1.51609	-1.02071	0.436485	1.62183	0.913228	0.349244	-0.0264989	-0.349061	0.361787	0.0151936	0	0	-0.165763	-0.153545	-0.188273	0.748315	0.151722	0	0	-0.166215	0.0427021	-0.213208	-0.188303	-0.216893	0.127822	0.663403	0.497024	0	0	-0.0274268	-0.379128	0.105252	0.699342	1.37855	0	0
2.32	2.56548	1.518	-0.780581	0.437771	1.63387	0.912879	0.351134	-0.0113776	-0.346191	0.369793	0.0224656	0	0	-0.123791	-0.174149	-0.177623	0.814109	0.0911898	0	0	-0.153486	0.0539638	-0.207225	-0.191786	-0.225216	0.146786	0.668287	0.450992	0	0	-0.0367466	-0.371199	0.102154	0.691923	1.38593	0	0
2.33	2.35951	1.51725	-0.580736	0.439137	1.64581	0.912645	0.349543	0.00289674	-0.342767	0.373813	0.0301008	0	0	-0.0841525	-0.191093	-0.165411	0.875345	0.0325495	0	0	-0.142828	0.0631153	-0.199943	-0.195031	-0.230344	0.152852	0.671553	0.442879	0	0	-0.0462626	-0.364502	0.102001	0.687487	1.38576	0	0
